<svg xmlns="http://www.w3.org/2000/svg" viewBox="362.5 267.5 19.75 21">
  <defs>
    <style>
      .cls-1 {
        stroke: rgba(0,0,0,0);
      }
    </style>
  </defs>
  <path id="Path_1" data-name="Path 1" class="cls-1" d="M16.25-6.25H12.5V-2.5h3.75ZM15-3.75H13.75V-5H15Zm1.25-7.5H12.5V-7.5h3.75ZM15-8.75H13.75V-10H15Zm3.125-10H13.75V-20H12.5v1.25H6.25V-20H5v1.25H1.25a1.217,1.217,0,0,0-.9.352A1.217,1.217,0,0,0,0-17.5V-1.25a1.217,1.217,0,0,0,.352.9A1.217,1.217,0,0,0,1.25,0H17.5a1.217,1.217,0,0,0,.9-.352,1.217,1.217,0,0,0,.352-.9V-17.5q0-1.016-.273-1.172A.639.639,0,0,0,18.125-18.75ZM17.5-1.875a.552.552,0,0,1-.625.625h-15a.552.552,0,0,1-.625-.625V-13.75H17.5ZM17.5-15H1.25v-1.875a.552.552,0,0,1,.625-.625H5v1.25H6.25V-17.5H12.5v1.25h1.25V-17.5h3.125a.552.552,0,0,1,.625.625ZM6.25-6.25H2.5V-2.5H6.25ZM5-3.75H3.75V-5H5Zm6.25-2.5H7.5V-2.5h3.75ZM10-3.75H8.75V-5H10Zm-3.75-7.5H2.5V-7.5H6.25ZM5-8.75H3.75V-10H5Zm6.25-2.5H7.5V-7.5h3.75ZM10-8.75H8.75V-10H10Z" transform="translate(363 288)"/>
</svg>
