<?xml version="1.0" encoding="utf-8"?>
<!-- Generator: Adobe Illustrator 21.1.0, SVG Export Plug-In . SVG Version: 6.00 Build 0)  -->
<svg version="1.1" id="Layer_1" xmlns="http://www.w3.org/2000/svg" xmlns:xlink="http://www.w3.org/1999/xlink" x="0px" y="0px"
	 viewBox="0 0 25 25" style="enable-background:new 0 0 25 25;" xml:space="preserve">
<style type="text/css">
	.st0{fill:#F2F2F2;}
	.st1{fill:#54C0EB;}
	.st2{fill:#CDD6E0;}
	.st3{fill:#FF7058;}
	.st4{fill:#40596B;}
</style>
<path class="st0" d="M24.9,25H0.1C0,25,0,25,0,24.9V8.3h25L24.9,25C25,25,25,25,24.9,25z"/>
<path class="st1" d="M24,2.8H1c-0.6,0-1,0.5-1,1v4.5h25V3.8C25,3.2,24.5,2.8,24,2.8z"/>
<g>
	<rect x="1.8" y="10.8" class="st2" width="3.5" height="3.5"/>
	<rect x="1.8" y="19.7" class="st2" width="3.5" height="3.5"/>
	<rect x="1.8" y="15.2" class="st2" width="3.5" height="3.5"/>
	<rect x="6.3" y="10.8" class="st2" width="3.5" height="3.5"/>
	<rect x="6.3" y="19.7" class="st2" width="3.5" height="3.5"/>
	<rect x="6.3" y="15.2" class="st2" width="3.5" height="3.5"/>
	<rect x="10.7" y="10.8" class="st2" width="3.5" height="3.5"/>
	<rect x="10.7" y="19.7" class="st2" width="3.5" height="3.5"/>
	<rect x="10.7" y="15.2" class="st2" width="3.5" height="3.5"/>
	<rect x="15.2" y="10.8" class="st2" width="3.5" height="3.5"/>
	<rect x="15.2" y="19.7" class="st2" width="3.5" height="3.5"/>
</g>
<rect x="15.2" y="15.2" class="st3" width="3.5" height="3.5"/>
<g>
	<rect x="19.7" y="10.8" class="st2" width="3.5" height="3.5"/>
	<rect x="19.7" y="19.7" class="st2" width="3.5" height="3.5"/>
	<rect x="19.7" y="15.2" class="st2" width="3.5" height="3.5"/>
</g>
<g>
	<path class="st4" d="M6.7,5.5H4.2c-0.1,0-0.1-0.1-0.1-0.1V0.1C4.1,0.1,4.1,0,4.2,0h2.5c0.1,0,0.1,0.1,0.1,0.1v5.3
		C6.9,5.5,6.8,5.5,6.7,5.5z"/>
	<path class="st4" d="M20.8,5.5h-2.5c-0.1,0-0.1-0.1-0.1-0.1V0.1c0-0.1,0.1-0.1,0.1-0.1h2.5c0.1,0,0.1,0.1,0.1,0.1v5.3
		C20.9,5.5,20.9,5.5,20.8,5.5z"/>
</g>
</svg>
